<svg width="267" height="193" viewBox="0 0 267 193" fill="none" xmlns="http://www.w3.org/2000/svg">
<rect x="133.892" y="2.08731" width="134.02" height="166.884" rx="11" transform="rotate(11.1478 133.892 2.08731)" fill="url(#paint0_linear_142_52)" stroke="url(#paint1_linear_142_52)" stroke-width="2"/>
<rect x="-0.787791" y="1.17447" width="134.02" height="166.884" rx="11" transform="matrix(-0.981132 0.193341 0.193341 0.981132 131.7 1.08731)" fill="url(#paint2_linear_142_52)" stroke="url(#paint3_linear_142_52)" stroke-width="2"/>
<rect x="58" y="1" width="152" height="191" rx="11" fill="url(#paint4_linear_142_52)" stroke="url(#paint5_linear_142_52)" stroke-width="2"/>
<path d="M122.889 79V106M122.889 79H136.222C138.58 79 140.841 79.9482 142.508 81.636C144.175 83.3239 145.111 85.6131 145.111 88C145.111 90.3869 144.175 92.6761 142.508 94.364C140.841 96.0518 138.58 97 136.222 97H122.889V79ZM122.889 106C120.531 106 118.27 106.948 116.603 108.636C114.937 110.324 114 112.613 114 115M122.889 106H140.667C144.203 106 147.594 104.104 150.095 100.728C152.595 97.3523 154 92.7739 154 88C154 83.2261 152.595 78.6477 150.095 75.2721C147.594 71.8964 144.203 70 140.667 70H114V115M114 115C114 117.387 114.937 119.676 116.603 121.364C118.27 123.052 120.531 124 122.889 124V110.5" stroke="white" stroke-width="4" stroke-linecap="square" stroke-linejoin="round"/>
<defs>
<linearGradient id="paint0_linear_142_52" x1="201.115" y1="0.912842" x2="201.115" y2="169.797" gradientUnits="userSpaceOnUse">
<stop stop-color="#393939"/>
<stop offset="1" stop-color="#333333"/>
</linearGradient>
<linearGradient id="paint1_linear_142_52" x1="133.104" y1="85.3549" x2="267.169" y2="85.3549" gradientUnits="userSpaceOnUse">
<stop stop-color="#CB2D3E"/>
<stop offset="1" stop-color="#EF473A"/>
</linearGradient>
<linearGradient id="paint2_linear_142_52" x1="68.0101" y1="0" x2="68.0101" y2="168.884" gradientUnits="userSpaceOnUse">
<stop stop-color="#393939"/>
<stop offset="1" stop-color="#333333"/>
</linearGradient>
<linearGradient id="paint3_linear_142_52" x1="0" y1="84.442" x2="134.065" y2="84.442" gradientUnits="userSpaceOnUse">
<stop stop-color="#CB2D3E"/>
<stop offset="1" stop-color="#EF473A"/>
</linearGradient>
<linearGradient id="paint4_linear_142_52" x1="134" y1="0" x2="134" y2="193" gradientUnits="userSpaceOnUse">
<stop stop-color="#393939"/>
<stop offset="1" stop-color="#333333"/>
</linearGradient>
<linearGradient id="paint5_linear_142_52" x1="57" y1="96.5" x2="208.786" y2="96.5" gradientUnits="userSpaceOnUse">
<stop stop-color="#CB2D3E"/>
<stop offset="1" stop-color="#EF473A"/>
</linearGradient>
</defs>
</svg>
