<svg width="22" height="20" viewBox="0 0 22 20" fill="none" xmlns="http://www.w3.org/2000/svg">
<path d="M16.6146 6.08955C16.2135 5.85075 15.6979 5.85075 15.2396 6.08955L12.0312 8.0597L9.85417 9.31343L6.70312 11.2836C6.30208 11.5224 5.78646 11.5224 5.32812 11.2836L2.86458 9.73134C2.46354 9.49254 2.17708 9.01493 2.17708 8.47761V5.49254C2.17708 5.01493 2.40625 4.53731 2.86458 4.23881L5.32812 2.74627C5.72917 2.50746 6.24479 2.50746 6.70312 2.74627L9.16667 4.29851C9.56771 4.53731 9.85417 5.01493 9.85417 5.55224V7.52239L12.0312 6.20896V4.17911C12.0312 3.70149 11.8021 3.22388 11.3437 2.92537L6.76042 0.119404C6.35937 -0.119401 5.84375 -0.119401 5.38542 0.119404L0.6875 2.98508C0.229167 3.22388 0 3.70149 0 4.17911V9.79105C0 10.2687 0.229167 10.7463 0.6875 11.0448L5.32812 13.8507C5.72917 14.0896 6.24479 14.0896 6.70312 13.8507L9.85417 11.9403L12.0312 10.6269L15.1823 8.71642C15.5833 8.47761 16.099 8.47761 16.5573 8.71642L19.0208 10.209C19.4219 10.4478 19.7083 10.9254 19.7083 11.4627V14.4478C19.7083 14.9254 19.4792 15.403 19.0208 15.7015L16.6146 17.194C16.2135 17.4328 15.6979 17.4328 15.2396 17.194L12.776 15.7015C12.375 15.4627 12.0885 14.9851 12.0885 14.4478V12.5373L9.91146 13.8507V15.8209C9.91146 16.2985 10.1406 16.7761 10.599 17.0746L15.2396 19.8806C15.6406 20.1194 16.1562 20.1194 16.6146 19.8806L21.2552 17.0746C21.6562 16.8358 21.9427 16.3582 21.9427 15.8209V10.1493C21.9427 9.67164 21.7135 9.19403 21.2552 8.89552L16.6146 6.08955Z" fill="#8247E5"/>
</svg>
