<svg width="233" height="190" viewBox="0 0 233 190" fill="none" xmlns="http://www.w3.org/2000/svg">
<path d="M79.9286 79.9732L79.9287 79.9655V79.9578C79.9287 59.2202 96.1417 42.4596 116.464 42.4596C136.481 42.4596 152.998 59.2257 152.998 79.9578C152.998 100.695 136.785 117.456 116.464 117.456C96.1316 117.456 79.6095 100.67 79.9286 79.9732ZM98.3333 131.302H134.667C162.738 131.302 185.4 152.997 185.4 179.646C185.4 184.529 181.268 188.53 176.061 188.53H56.9394C51.7319 188.53 47.6 184.529 47.6 179.646C47.6 152.997 70.2618 131.302 98.3333 131.302ZM214.525 29.614C214.525 45.4318 201.916 58.228 186.4 58.228C170.877 58.228 158.275 45.432 158.275 29.614C158.275 13.7962 170.884 1 186.4 1C201.923 1 214.525 13.796 214.525 29.614ZM76.9469 111.533H6.41478C3.49497 111.533 1 108.946 1 105.611C1 87.0279 14.9797 72.0736 32.0666 72.0736H54.573C58.8524 72.0736 62.8379 72.7559 66.4602 74.6251C66.4257 74.8903 66.3895 75.1587 66.3528 75.4299C66.1573 76.8769 65.9511 78.4035 65.9511 79.9578C65.9511 91.9239 70.1536 102.815 76.9469 111.533ZM74.725 29.614C74.725 45.4318 62.1164 58.228 46.6 58.228C31.0836 58.228 18.475 45.4318 18.475 29.614C18.475 13.7962 31.0836 1 46.6 1C62.1235 1 74.725 13.796 74.725 29.614ZM178.412 72.0736H200.926C218.035 72.0736 232 87.0277 232 105.611C232 108.944 229.502 111.533 226.571 111.533H155.964C162.744 102.818 166.94 91.9269 166.94 79.9578C166.94 78.4638 166.741 76.9924 166.553 75.5964C166.513 75.3016 166.474 75.0101 166.437 74.7225C170.137 73.0412 174.165 72.0736 178.412 72.0736Z" fill="url(#paint0_linear_102_314)" stroke="url(#paint1_linear_102_314)" stroke-width="2"/>
<defs>
<linearGradient id="paint0_linear_102_314" x1="116.5" y1="0" x2="116.5" y2="189.53" gradientUnits="userSpaceOnUse">
<stop stop-color="#393939"/>
<stop offset="1" stop-color="#333333"/>
</linearGradient>
<linearGradient id="paint1_linear_102_314" x1="116.5" y1="0" x2="116.5" y2="189.53" gradientUnits="userSpaceOnUse">
<stop stop-color="#CB2D3E"/>
<stop offset="1" stop-color="#EF473A"/>
</linearGradient>
</defs>
</svg>
