<svg width="372" height="193" viewBox="0 0 372 193" fill="none" xmlns="http://www.w3.org/2000/svg">
<rect x="1" y="1" width="153" height="191" rx="11" fill="url(#paint0_linear_142_54)" stroke="url(#paint1_linear_142_54)" stroke-width="2"/>
<circle cx="301.5" cy="96.5" r="64.5" fill="url(#paint2_linear_142_54)" stroke="url(#paint3_linear_142_54)" stroke-width="12"/>
<path d="M212.061 82.0607C212.646 81.4749 212.646 80.5251 212.061 79.9393L202.515 70.3934C201.929 69.8076 200.979 69.8076 200.393 70.3934C199.808 70.9792 199.808 71.9289 200.393 72.5147L208.879 81L200.393 89.4853C199.808 90.0711 199.808 91.0208 200.393 91.6066C200.979 92.1924 201.929 92.1924 202.515 91.6066L212.061 82.0607ZM175 82.5H211V79.5H175V82.5Z" fill="white"/>
<path d="M173.939 110.939C173.354 111.525 173.354 112.475 173.939 113.061L183.485 122.607C184.071 123.192 185.021 123.192 185.607 122.607C186.192 122.021 186.192 121.071 185.607 120.485L177.121 112L185.607 103.515C186.192 102.929 186.192 101.979 185.607 101.393C185.021 100.808 184.071 100.808 183.485 101.393L173.939 110.939ZM211 110.5L175 110.5L175 113.5L211 113.5L211 110.5Z" fill="white"/>
<path d="M301.06 79.4267C301.122 78.8578 301.878 78.8578 301.94 79.4267L302.459 84.1997C303.13 90.3628 307.584 95.222 313.234 95.9533L317.609 96.5196C318.13 96.5872 318.13 97.4128 317.609 97.4804L313.234 98.0467C307.584 98.778 303.13 103.637 302.459 109.8L301.94 114.573C301.878 115.142 301.122 115.142 301.06 114.573L300.541 109.8C299.87 103.637 295.416 98.778 289.766 98.0467L285.391 97.4804C284.87 97.4128 284.87 96.5872 285.391 96.5196L289.766 95.9533C295.416 95.222 299.87 90.3628 300.541 84.1997L301.06 79.4267Z" fill="white"/>
<path d="M65.8889 79V106M65.8889 79H79.2222C81.5797 79 83.8406 79.9482 85.5076 81.636C87.1746 83.3239 88.1111 85.6131 88.1111 88C88.1111 90.3869 87.1746 92.6761 85.5076 94.364C83.8406 96.0518 81.5797 97 79.2222 97H65.8889V79ZM65.8889 106C63.5314 106 61.2705 106.948 59.6035 108.636C57.9365 110.324 57 112.613 57 115M65.8889 106H83.6667C87.2029 106 90.5943 104.104 93.0948 100.728C95.5952 97.3523 97 92.7739 97 88C97 83.2261 95.5952 78.6477 93.0948 75.2721C90.5943 71.8964 87.2029 70 83.6667 70H57V115M57 115C57 117.387 57.9365 119.676 59.6035 121.364C61.2705 123.052 63.5314 124 65.8889 124V110.5" stroke="white" stroke-width="4" stroke-linecap="square" stroke-linejoin="round"/>
<defs>
<linearGradient id="paint0_linear_142_54" x1="77.5" y1="0" x2="77.5" y2="193" gradientUnits="userSpaceOnUse">
<stop stop-color="#393939"/>
<stop offset="1" stop-color="#333333"/>
</linearGradient>
<linearGradient id="paint1_linear_142_54" x1="0" y1="96.5" x2="152.772" y2="96.5" gradientUnits="userSpaceOnUse">
<stop stop-color="#CB2D3E"/>
<stop offset="1" stop-color="#EF473A"/>
</linearGradient>
<linearGradient id="paint2_linear_142_54" x1="301.5" y1="37.4448" x2="301.5" y2="156.929" gradientUnits="userSpaceOnUse">
<stop stop-color="#393939"/>
<stop offset="1" stop-color="#333333"/>
</linearGradient>
<linearGradient id="paint3_linear_142_54" x1="301.5" y1="26" x2="301.5" y2="167" gradientUnits="userSpaceOnUse">
<stop stop-color="#CB2D3E"/>
<stop offset="1" stop-color="#EF473A"/>
</linearGradient>
</defs>
</svg>
